<?xml version="1.0" encoding="utf-8"?>
<!-- Generator: Adobe Illustrator 22.1.0, SVG Export Plug-In . SVG Version: 6.00 Build 0)  -->
<svg version="1.1" id="Layer_1" xmlns="http://www.w3.org/2000/svg" xmlns:xlink="http://www.w3.org/1999/xlink" x="0px" y="0px"
	 viewBox="0 0 1000 1200" style="enable-background:new 0 0 1000 1200;" xml:space="preserve">
<style type="text/css">
	.st0{fill:#FFFFFF;}
</style>
<g>
	<path class="st0" d="M424.8,1147.2c8.3,0,14.3,5.5,14.3,14.5c0,8.9-6,14.5-14.3,14.5h-8.5v-29H424.8z M421,1151.6v20.2h4
		c5.3,0,9.4-3.6,9.4-10.1c0-6.5-4.2-10.1-9.4-10.1H421z"/>
	<path class="st0" d="M451.1,1147.2h18.2v4.4h-13.5v7.8h6.6v4.4h-6.6v8h13.8v4.4h-18.4V1147.2z"/>
	<path class="st0" d="M493.1,1158.8c3.6,1.4,5.9,3.8,5.9,8.2c0,5.4-4.1,9.4-9.3,9.4c-5.3,0-9.3-4.2-9.3-9.3h4.6
		c0,2.7,1.7,4.9,4.7,4.9s4.7-2,4.7-4.9c0-4.3-3.8-4.3-7.9-5.9c-2.6-1-4.6-3.4-4.6-6.5c0-4.5,3.3-7.7,7.6-7.7c3.1,0,5.5,1.3,6.9,3.7
		l-3.1,3.1c-0.7-1.6-2.2-2.4-3.6-2.4c-1.9,0-3.2,1.3-3.2,3.1C486.5,1157.1,489.3,1157.3,493.1,1158.8z"/>
	<path class="st0" d="M523.7,1151.6h-4.4v20.2h4.4v4.4h-13.4v-4.4h4.4v-20.2h-4.4v-4.4h13.4V1151.6z"/>
	<path class="st0" d="M557.9,1172.2c-2.3,2.8-5.7,4.2-9.4,4.2c-8.2,0-14.3-6.6-14.3-14.7s6.1-14.7,14.3-14.7c4.7,0,8.4,2.1,11,5.3
		l-3.2,3.2c-1.7-2.5-4.3-4.1-7.8-4.1c-5.6,0-9.6,4.6-9.6,10.3c0,5.8,4,10.3,9.6,10.3c5,0,8.5-3.3,9.4-8.3h-9.6v-4.4h13.9v16.8h-4.3
		V1172.2z"/>
	<path class="st0" d="M575.4,1147.2h5.1l9.3,19.9v-19.9h4.6v29h-5.1l-9.3-19.9v19.9h-4.6V1147.2z"/>
</g>
<g>
	<path class="st0" d="M117.3,1013.4l12.5-1.4v80.6h-12.5V1013.4z"/>
	<path class="st0" d="M204.3,1092.7h-12.5v-6.5c-2.6,3.4-7.7,7.1-15.5,7.1c-14,0-21.7-8.3-21.7-23.3v-34H167v31.2
		c0,10,4.2,14.3,12.3,14.3s12.5-5.9,12.5-14.3v-31.2h12.5V1092.7z"/>
	<path class="st0" d="M262.6,1073.8l14.6,18.9h-15.7l-16-20.6v20.6H233v-79.3l12.5-1.4v26.6c2.2-1.8,6.5-3.3,10.5-3.3
		c11.9,0,19.5,8.4,19.5,19.8C275.5,1064.3,270.4,1071.3,262.6,1073.8z M254.2,1046.9c-5,0-8.9,3.3-8.9,8.3c0,5,4,8.3,8.9,8.3
		s8.9-3.3,8.9-8.3C263.1,1050.2,259.2,1046.9,254.2,1046.9z"/>
	<path class="st0" d="M322.9,1035.4c13.5,0,23.7,8.3,27.5,19.8l-38.3,22.1c2.8,2.6,6.6,4.3,10.8,4.3c9.4,0,14.8-5.7,16.2-14.5h12.7
		c-1.6,15.9-13.7,26.3-28.9,26.3c-16.8,0-29-12.9-29-29S306.2,1035.4,322.9,1035.4z M306.9,1067.2l26.9-15.5
		c-2.7-2.9-6.7-4.5-10.9-4.5c-10,0-16.3,7.9-16.3,17.2C306.6,1065.4,306.6,1066.3,306.9,1067.2z"/>
	<path class="st0" d="M440.2,1035.4c4.4,0,8.5,1,11.5,3.3v-2.6h12.5v22.3c0,6.6-2.6,12.5-7.6,16.5c6.8,4.8,10.8,12.2,10.8,20.6
		c0,15.9-11.7,26.2-26.5,26.2c-13.9,0-24-8.8-26.3-21.6h12.9c1.7,5.5,5.8,9.9,13.4,9.9c8.4,0,13.8-5.9,13.8-14.4
		c0-8.5-5.4-14.3-13.8-14.3c-5.4,0-10.2,3.2-12.3,7.5l-9.1-8.9c1.4-1.8,3.1-3.5,5.5-4.9c-4.9-4.2-7.6-10-7.6-16.5
		C417.5,1045.6,426.9,1035.4,440.2,1035.4z M440.9,1069.5c6.2,0,10.9-4.4,10.9-11.1c0-6.8-4.6-11.2-10.9-11.2c-6.3,0-11,4.4-11,11.2
		C429.9,1065,434.6,1069.5,440.9,1069.5z"/>
	<path class="st0" d="M543.7,1036.1v56.6H531v-5.9c-2.4,3.1-8.6,6.6-16.2,6.6c-16.2,0-28.4-12-28.4-29c0-17,12.2-29,28.4-29
		c7.5,0,13.8,3.5,16.2,6.6v-5.9H543.7z M515.3,1047.4c-9.4,0-16.6,7.7-16.6,17s7.2,17,16.6,17c9.2,0,16.2-7.7,16.2-17
		S524.5,1047.4,515.3,1047.4z"/>
	<path class="st0" d="M568.7,1036.1h12.5v5.9c2.7-3.6,6.7-6.6,14.6-6.6v12h-1.1c-7.9,0-13.5,5.7-13.5,14v31.2h-12.5V1036.1z"/>
	<path class="st0" d="M616.6,1036.1h12.5v5.9c2.7-3.6,6.7-6.6,14.6-6.6v12h-1.1c-7.9,0-13.5,5.7-13.5,14v31.2h-12.5V1036.1z"/>
	<path class="st0" d="M670.9,1012.7c4.6,0,8.4,3.7,8.4,8.5c0,4.8-3.7,8.5-8.4,8.5c-4.6,0-8.4-3.7-8.4-8.5
		C662.5,1016.5,666.2,1012.7,670.9,1012.7z M664.6,1036.1h12.5v56.6h-12.5V1036.1z"/>
	<path class="st0" d="M710.2,1074c0,4.8,3.7,7.6,7.5,7.6c4.3,0,7.2-2.5,7.2-7c0-6.3-5.5-6.8-11.1-8.4c-5.7-1.6-11.8-6-11.8-15.2
		c0-9.1,7-15.6,15.6-15.6c5.9,0,10.3,2.6,13.5,7.2l-7.7,7.6c-0.9-2.3-2.7-3.7-5-3.7c-2.9,0-4.5,2.3-4.5,4.5c0,5,6.3,4.9,12.5,7.1
		c5.8,2.2,11,6.6,11,16.2c0,11.3-8.3,19-19.7,19c-11.7,0-19.4-8.6-19.4-19.4H710.2z"/>
	<path class="st0" d="M786.1,1035.4c16.8,0,29,12.5,29,29s-12.2,29-29,29c-16.8,0-29-12.5-29-29S769.4,1035.4,786.1,1035.4z
		 M786.1,1081.3c9.7,0,16.3-7.1,16.3-17c0-9.9-6.6-17-16.3-17c-9.7,0-16.3,7.1-16.3,17C769.8,1074.2,776.4,1081.3,786.1,1081.3z"/>
	<path class="st0" d="M839.1,1036.1h12.5v6.5c2.6-3.4,7.7-7.1,15.5-7.1c14,0,21.7,8.3,21.7,23.3v34h-12.5v-31.2
		c0-10-4.2-14.3-12.3-14.3c-8.2,0-12.5,5.9-12.5,14.3v31.2h-12.5V1036.1z"/>
</g>
<g>
	<path class="st0" d="M781.5,773.6l32.3,19.3l37.7,22.5c28-30.7,35.7-74.8,13.3-114.9c-27.9-49.9-86.7-64.9-134.6-38.2
		c-9.2,5.1-17.3,11.4-24.1,18.5L523.9,568.3l180.1-58.1c0,0,0,0,0,0c11.4-3,22.6-7.4,33.6-13.2c34.6-18.4,59.9-48.4,67.2-86.2
		l19.7,36.9l40.4-21.5l-84-157.6l-130.1,69.3l21.9,41.2l89.7-47.8c16.9,51.3,0.6,99.4-46.7,124.6c-52.8,28.1-112.8,5.3-141.8-49
		c-29-54.4-14.5-116.9,38.3-145.1c33-17.6,64.8-15.1,93.7-0.1l14.1-46.4c-40.4-16.9-85.9-18-129.8,5.4
		c-76.9,41-101.4,133.3-60.7,209.8c18.1,34,46.1,59.1,78.3,72.8l-120.9,39L402.6,85.5l-34.6,6.4L453.3,553l-256.6,82.7l-97.6-527
		l-35.6,6.6L162,647l6.4,34.4l0.4,1.4l34.5-11.1L460,588.9l56.8,306.6l34.6-6.4l-53.9-291L684.9,714c-9.7,25.7-8.3,55.5,7,82.9
		c25.2,45.2,76.4,64,126.3,42.4l-21.1-37.8c-28.6,10.6-54.5,3.9-70.1-24.2c-7-12.5-8.1-26.4-5.1-39.2L781.5,773.6z M751.2,700.1
		c27.7-15.4,61.8-9.7,78.4,20c7,12.5,8.8,26.9,4.6,39.9l-1.2-0.7l-88.7-54.8C746.4,702.8,748.7,701.5,751.2,700.1z"/>
	<polygon class="st0" points="813.7,792.9 813.4,793.3 781.5,773.6 	"/>
	<g>
		<path class="st0" d="M357.1,217.8l40.3,195.3c11.6,56.3-20.3,103.2-74.2,114.3c-53.8,11.1-101.7-19.3-113.3-75.6L177,292.3
			l38.7-45.3l40.8,197.7c6,29.2,28.6,45.1,57.8,39.1c29.2-6,43.6-29.6,37.6-58.8l-33.8-163.6L357.1,217.8z"/>
	</g>
	<g>
		<path class="st0" d="M881.4,333.8c18.2-9.7,40.9-2.4,50.6,15.8c9.7,18.2,3.1,41.1-15.1,50.8c-18.2,9.7-40.9,2.4-50.6-15.8
			C856.7,366.4,863.3,343.5,881.4,333.8z"/>
	</g>
</g>
</svg>
